<?xml version="1.0" encoding="UTF-8"?>
<!--Generator: Apple Native CoreSVG 326-->
<!DOCTYPE svg
PUBLIC "-//W3C//DTD SVG 1.1//EN"
       "http://www.w3.org/Graphics/SVG/1.1/DTD/svg11.dtd">
<svg version="1.1" xmlns="http://www.w3.org/2000/svg" xmlns:xlink="http://www.w3.org/1999/xlink" viewBox="0 0 37.2949 35.2002">
 <g>
  <rect height="35.2002" opacity="0" width="37.2949" x="0" y="0"/>
  <path d="M0.19043 12.2314C0.19043 20.1855 7.03125 27.9785 17.5049 34.7314C17.8711 34.9658 18.3838 35.2002 18.75 35.2002C19.1016 35.2002 19.6143 34.9658 19.9805 34.7314C30.4688 27.9785 37.2949 20.1855 37.2949 12.2314C37.2949 5.69824 32.7979 1.04004 26.7773 1.04004C23.3203 1.04004 20.4053 2.76855 18.75 5.41992C17.1094 2.7832 14.165 1.04004 10.7227 1.04004C4.70215 1.04004 0.19043 5.69824 0.19043 12.2314ZM2.79785 12.2314C2.79785 7.10449 6.15234 3.63281 10.6934 3.63281C14.2236 3.63281 16.333 5.83008 17.6074 7.89551C18.0469 8.56934 18.3398 8.77441 18.75 8.77441C19.1455 8.77441 19.4092 8.55469 19.8779 7.89551C21.2109 5.85938 23.291 3.63281 26.8066 3.63281C31.3477 3.63281 34.7021 7.10449 34.7021 12.2314C34.7021 19.3066 27.29 26.8359 19.1016 32.2852C18.9404 32.3877 18.8232 32.4756 18.75 32.4756C18.6768 32.4756 18.5596 32.3877 18.3984 32.2852C10.1953 26.8359 2.79785 19.3066 2.79785 12.2314Z" fill="white" fill-opacity="0.85"/>
  <path d="M12.4951 20.0684C12.4951 20.3906 12.7588 20.6104 13.0664 20.6104L17.8564 20.6104L15.293 27.4805C14.9707 28.3154 15.8496 28.7549 16.3916 28.0811L24.082 18.4131C24.2285 18.2373 24.3164 18.0615 24.3164 17.9004C24.3164 17.5928 24.0381 17.3584 23.7158 17.3584L18.9551 17.3584L21.5039 10.4883C21.8115 9.66797 20.9473 9.21387 20.4053 9.8877L12.7148 19.5557C12.5684 19.7461 12.4951 19.9072 12.4951 20.0684Z" fill="white" fill-opacity="0.85"/>
 </g>
</svg>
