<svg xmlns="http://www.w3.org/2000/svg" width="512" height="512"><path d="M64.588 15.863l2.011-.008c2.234-.008 4.467-.008 6.7-.009l4.842-.013c4.443-.012 8.886-.018 13.329-.022 4.789-.006 9.578-.018 14.367-.029 11.571-.024 23.142-.039 34.714-.052l9.807-.011a96604.519 96604.519 0 0178.57-.071c18.927-.013 37.854-.046 56.78-.088 19.438-.042 38.876-.066 58.313-.071 10.911-.004 21.822-.015 32.733-.048 9.296-.028 18.59-.04 27.886-.028 4.74.005 9.478.002 14.217-.022 4.348-.023 8.695-.022 13.042-.003 1.564.003 3.128-.003 4.692-.018C451.528 15.235 464.208 18.32 476 28l2.992 2.352c3.01 2.529 5.286 5.31 7.57 8.523l2.192 2.992c6.703 11.199 7.981 23 7.88 35.756.007 1.623.015 3.246.025 4.87.02 4.418.01 8.835-.005 13.253-.012 4.782.006 9.563.02 14.344.022 9.35.017 18.7.002 28.05-.01 7.602-.012 15.204-.007 22.807l.002 3.286.005 6.61c.015 20.632-.002 41.264-.029 61.896-.022 17.682-.018 35.364.005 53.046a30107.317 30107.317 0 01.015 71.54c-.005 7.589.003 15.177.014 22.766.015 9.254.01 18.51-.016 27.764-.013 4.717-.018 9.433-.002 14.15.015 4.327.007 8.653-.02 12.98-.005 1.556-.002 3.112.01 4.669.108 14.904-2.996 27.581-12.653 39.346l-2.352 2.992c-2.529 3.01-5.31 5.286-8.523 7.57l-2.992 2.192c-11.199 6.703-23 7.981-35.756 7.88-1.623.007-3.246.015-4.87.025-4.418.02-8.835.01-13.253-.005-4.782-.012-9.563.006-14.344.02-9.35.022-18.7.017-28.05.002-7.602-.01-15.204-.012-22.807-.007l-3.286.002-6.61.005c-20.632.015-41.264-.002-61.896-.029a20665.28 20665.28 0 00-53.046.005 30107.317 30107.317 0 01-71.54.015c-7.589-.005-15.177.003-22.766.014-9.254.015-18.51.01-27.764-.016-4.717-.013-9.433-.018-14.15-.002-4.327.015-8.653.007-12.98-.02a408.945 408.945 0 00-4.669.01C57.442 499.76 44.765 496.657 33 487l-2.992-2.352c-3.01-2.529-5.286-5.31-7.57-8.523l-2.192-2.992c-6.703-11.199-7.981-23-7.88-35.756-.007-1.623-.015-3.246-.025-4.87-.02-4.418-.01-8.835.005-13.253.012-4.782-.006-9.563-.02-14.344-.022-9.35-.017-18.7-.002-28.05.01-7.602.012-15.204.007-22.807l-.002-3.286-.005-6.61c-.015-20.632.002-41.264.029-61.896.022-17.682.018-35.364-.005-53.046a30107.31 30107.31 0 01-.015-71.54c.005-7.589-.003-15.177-.014-22.766-.015-9.254-.01-18.51.016-27.764.013-4.717.018-9.433.002-14.15-.015-4.327-.007-8.653.02-12.98.005-1.556.002-3.112-.01-4.669C12.24 60.394 15.38 47.836 25 36l1.875-2.492c9.25-10.916 23.468-17.617 37.713-17.645z" fill="#252F35"/><path d="M168.733 68.733l2.302-.014c2.535-.013 5.07-.011 7.606-.01 1.822-.006 3.644-.012 5.466-.02 4.945-.018 9.89-.022 14.834-.024 3.093 0 6.187-.005 9.28-.01 10.804-.019 21.608-.027 32.413-.026 10.05.002 20.099-.02 30.148-.051 8.643-.026 17.287-.037 25.93-.036 5.155 0 10.31-.005 15.465-.026 4.855-.02 9.71-.02 14.565-.005 1.773.002 3.547-.003 5.32-.015 12.95-.083 25.592.542 35.934 9.379 8.226 8.723 11.306 17.51 11.295 29.239l.02 3.042c.019 3.314.023 6.628.025 9.942l.02 6.943c.012 4.853.016 9.706.015 14.558 0 6.192.027 12.382.061 18.573.022 4.783.026 9.566.025 14.35.003 2.28.012 4.56.027 6.841.182 29.448.182 29.448-9.504 40.703-11.154 10.89-23.477 11.38-38.193 11.338l-5.541.02c-4.998.019-9.996.018-14.994.012-4.18-.003-8.36.003-12.54.009-9.863.014-19.727.012-29.591.001-10.16-.011-20.321.003-30.482.03-8.739.022-17.478.028-26.217.022-5.213-.003-10.425 0-15.638.017-4.903.015-9.805.011-14.708-.008-1.793-.003-3.587 0-5.381.01-13.787.075-24.424-1.58-34.695-11.517-7.67-8.86-9.46-19.318-9.404-30.729l-.02-3.06c-.019-3.3-.015-6.601-.01-9.902-.004-2.315-.01-4.63-.015-6.944-.01-4.835-.007-9.67.003-14.506.011-6.18-.009-12.358-.038-18.537-.018-4.774-.018-9.548-.012-14.322 0-2.278-.006-4.556-.019-6.833-.015-3.19-.004-6.378.013-9.568l-.029-2.814C132.585 94.371 136.606 85.34 144 78c7.82-5.955 14.814-9.311 24.733-9.267z" fill="#38454D"/><path d="M64.588 15.863l2.011-.008c2.234-.008 4.467-.008 6.7-.009l4.842-.013c4.443-.012 8.886-.018 13.329-.022 4.789-.006 9.578-.018 14.367-.029 11.571-.024 23.142-.039 34.714-.052l9.807-.011a96604.519 96604.519 0 0178.57-.071c18.927-.013 37.854-.046 56.78-.088 19.438-.042 38.876-.066 58.313-.071 10.911-.004 21.822-.015 32.733-.048 9.296-.028 18.59-.04 27.886-.028 4.74.005 9.478.002 14.217-.022 4.348-.023 8.695-.022 13.042-.003 1.564.003 3.128-.003 4.692-.018C451.528 15.235 464.208 18.32 476 28l2.992 2.352c3.01 2.529 5.286 5.31 7.57 8.523l2.192 2.992c6.703 11.199 7.981 23 7.88 35.756.007 1.623.015 3.246.025 4.87.02 4.418.01 8.835-.005 13.253-.012 4.782.006 9.563.02 14.344.022 9.35.017 18.7.002 28.05-.01 7.602-.012 15.204-.007 22.807l.002 3.286.005 6.61c.015 20.632-.002 41.264-.029 61.896-.022 17.682-.018 35.364.005 53.046a30107.317 30107.317 0 01.015 71.54c-.005 7.589.003 15.177.014 22.766.015 9.254.01 18.51-.016 27.764-.013 4.717-.018 9.433-.002 14.15.015 4.327.007 8.653-.02 12.98-.005 1.556-.002 3.112.01 4.669.108 14.904-2.996 27.581-12.653 39.346l-2.352 2.992c-2.529 3.01-5.31 5.286-8.523 7.57l-2.992 2.192c-11.199 6.703-23 7.981-35.756 7.88-1.623.007-3.246.015-4.87.025-4.418.02-8.835.01-13.253-.005-4.782-.012-9.563.006-14.344.02-9.35.022-18.7.017-28.05.002-7.602-.01-15.204-.012-22.807-.007l-3.286.002-6.61.005c-20.632.015-41.264-.002-61.896-.029a20665.28 20665.28 0 00-53.046.005 30107.317 30107.317 0 01-71.54.015c-7.589-.005-15.177.003-22.766.014-9.254.015-18.51.01-27.764-.016-4.717-.013-9.433-.018-14.15-.002-4.327.015-8.653.007-12.98-.02a408.945 408.945 0 00-4.669.01C57.442 499.76 44.765 496.657 33 487l-2.992-2.352c-3.01-2.529-5.286-5.31-7.57-8.523l-2.192-2.992c-6.703-11.199-7.981-23-7.88-35.756-.007-1.623-.015-3.246-.025-4.87-.02-4.418-.01-8.835.005-13.253.012-4.782-.006-9.563-.02-14.344-.022-9.35-.017-18.7-.002-28.05.01-7.602.012-15.204.007-22.807l-.002-3.286-.005-6.61c-.015-20.632.002-41.264.029-61.896.022-17.682.018-35.364-.005-53.046a30107.31 30107.31 0 01-.015-71.54c.005-7.589-.003-15.177-.014-22.766-.015-9.254-.01-18.51.016-27.764.013-4.717.018-9.433.002-14.15-.015-4.327-.007-8.653.02-12.98.005-1.556.002-3.112-.01-4.669C12.24 60.394 15.38 47.836 25 36l1.875-2.492c9.25-10.916 23.468-17.617 37.713-17.645zM29.5 39.938c-9.113 12.4-10.8 23.697-10.767 38.711l-.014 4.809c-.012 4.394-.012 8.788-.01 13.182 0 4.743-.01 9.486-.02 14.23-.016 9.288-.022 18.577-.023 27.866-.001 7.551-.005 15.103-.012 22.655-.017 21.418-.026 42.836-.025 64.254v7c.001 18.728-.018 37.456-.046 56.185a36444.11 36444.11 0 00-.04 57.712c0 10.798-.006 21.595-.027 32.393-.018 9.193-.023 18.386-.009 27.58.006 4.687.007 9.375-.01 14.063-.016 4.297-.014 8.594.004 12.891.003 1.55 0 3.098-.012 4.647C18.397 451.82 21.18 462.646 29 474l1.227 1.86c3.123 4.176 7.157 7.018 11.46 9.89l1.672 1.143c10.046 6.394 21.111 6.544 32.651 6.495a2649.468 2649.468 0 0017.978.02c4.741-.006 9.482.007 14.223.017 9.279.017 18.557.018 27.835.013a18183.166 18183.166 0 0125.886.005l6.55.004c20.461.014 40.923.009 61.384-.003 18.709-.01 37.417.003 56.126.027 19.224.024 38.448.034 57.672.027 10.788-.003 21.575 0 32.362.017 9.182.014 18.364.015 27.547-.002 4.682-.009 9.364-.011 14.046.004 4.291.014 8.582.01 12.873-.01 1.547-.004 3.094 0 4.641.01 13.679.085 24.542-2.684 35.867-10.517l1.93-1.332c8.933-6.889 14.84-18.726 17.07-29.668.094-2.175.13-4.354.134-6.531l.007-1.992c.007-2.213.007-4.426.006-6.638l.011-4.797c.01-4.4.014-8.802.017-13.203.004-4.744.013-9.488.022-14.232.02-11.461.03-22.923.039-34.384.004-5.399.01-10.797.015-16.195a98882.036 98882.036 0 00.046-71.322c.008-18.748.033-37.495.066-56.242.033-19.25.05-38.5.054-57.75.002-10.807.01-21.614.036-32.42.022-9.206.03-18.411.02-27.617-.004-4.694-.002-9.388.017-14.082.018-4.304.017-8.608.001-12.912-.002-1.55.002-3.101.014-4.652C490.62 61.28 487.166 49.07 477 37c-9.248-9.233-21.735-15.241-34.9-15.257l-2.003-.01c-2.207-.01-4.413-.005-6.62 0l-4.803-.014c-4.395-.012-8.789-.012-13.183-.01-4.742 0-9.484-.01-14.226-.02-9.288-.016-18.577-.022-27.865-.023a31752.3 31752.3 0 01-22.657-.012c-21.419-.017-42.838-.026-64.257-.025H279.484c-18.727.001-37.455-.018-56.182-.046a36433.27 36433.27 0 00-57.71-.04c-10.797 0-21.593-.006-32.39-.027a7976.7 7976.7 0 00-27.583-.009c-4.688.006-9.376.007-14.065-.01-4.298-.017-8.596-.014-12.894.004-1.549.003-3.097 0-4.646-.012-17.804-.12-32.806 4.5-44.514 18.449z" fill="#EB8D27"/><path d="M168.733 68.733l2.302-.014c2.535-.013 5.07-.011 7.606-.01 1.822-.006 3.644-.012 5.466-.02 4.945-.018 9.89-.022 14.834-.024 3.093 0 6.187-.005 9.28-.01 10.804-.019 21.608-.027 32.413-.026 10.05.002 20.099-.02 30.148-.051 8.643-.026 17.287-.037 25.93-.036 5.155 0 10.31-.005 15.465-.026 4.855-.02 9.71-.02 14.565-.005 1.773.002 3.547-.003 5.32-.015 12.95-.083 25.592.542 35.934 9.379 8.226 8.723 11.306 17.51 11.295 29.239l.02 3.042c.019 3.314.023 6.628.025 9.942l.02 6.943c.012 4.853.016 9.706.015 14.558 0 6.192.027 12.382.061 18.573.022 4.783.026 9.566.025 14.35.003 2.28.012 4.56.027 6.841.182 29.448.182 29.448-9.504 40.703-11.154 10.89-23.477 11.38-38.193 11.338l-5.541.02c-4.998.019-9.996.018-14.994.012-4.18-.003-8.36.003-12.54.009-9.863.014-19.727.012-29.591.001-10.16-.011-20.321.003-30.482.03-8.739.022-17.478.028-26.217.022-5.213-.003-10.425 0-15.638.017-4.903.015-9.805.011-14.708-.008-1.793-.003-3.587 0-5.381.01-13.787.075-24.424-1.58-34.695-11.517-7.67-8.86-9.46-19.318-9.404-30.729l-.02-3.06c-.019-3.3-.015-6.601-.01-9.902-.004-2.315-.01-4.63-.015-6.944-.01-4.835-.007-9.67.003-14.506.011-6.18-.009-12.358-.038-18.537-.018-4.774-.018-9.548-.012-14.322 0-2.278-.006-4.556-.019-6.833-.015-3.19-.004-6.378.013-9.568l-.029-2.814C132.585 94.371 136.606 85.34 144 78c7.82-5.955 14.814-9.311 24.733-9.267zM145.57 86.645c-4.67 7.006-6.16 12.4-6.088 20.835l-.02 3.088c-.018 3.35-.007 6.7.007 10.05l-.012 7.023c-.006 4.9.003 9.8.022 14.701.022 6.263.01 12.526-.015 18.79-.014 4.833-.01 9.666 0 14.5.003 2.308 0 4.616-.01 6.924-.01 3.236.006 6.47.028 9.705l-.024 2.857c.111 8.83 2.687 16.78 8.757 23.347 3.246 2.792 6.949 4.678 10.785 6.535l2 1c2.446.104 4.864.148 7.31.147l2.31.011c2.57.011 5.138.015 7.706.019l5.509.02c5 .017 10 .028 15.001.036l9.375.018c9.778.019 19.557.033 29.335.041 11.284.01 22.567.036 33.85.077 8.722.03 17.444.045 26.166.048 5.209.002 10.417.011 15.625.036 4.905.024 9.81.028 14.715.018 1.795 0 3.59.006 5.386.02 11.426.082 22.412-.158 31.124-8.602 9.513-11.317 8.423-23.692 8.28-37.713-.004-2.316-.006-4.631-.005-6.946-.004-4.834-.03-9.668-.07-14.502-.05-6.18-.062-12.36-.06-18.54 0-4.774-.017-9.548-.039-14.322-.01-2.279-.015-4.557-.017-6.836-.007-3.187-.033-6.373-.065-9.56l.004-2.82c-.115-7.913-1.551-15.326-6.94-21.4l-1.781-2.11c-10.01-7.88-20.026-7.862-32.159-7.787-1.847-.007-3.695-.016-5.542-.027-4.99-.022-9.979-.014-14.969.002-5.236.013-10.472.001-15.709-.007-8.79-.009-17.58.003-26.37.027a5641.89 5641.89 0 01-30.437-.009c-8.731-.023-17.462-.026-26.192-.013-5.206.008-10.412.01-15.618-.007-4.895-.015-9.789-.005-14.683.024-1.79.007-3.581.005-5.372-.006-12.794-.072-22.399 1.057-31.098 11.308z" fill="#F08F27"/><path d="M73 314c4.86 1.684 8.167 4.75 11 9 1.253 3.759 1.172 7.283 1.193 11.2l.025 2.534c.024 2.77.041 5.54.055 8.309l.017 2.87c.026 5.015.046 10.03.06 15.044.013 4.145.041 8.29.082 12.434.05 5.009.074 10.018.081 15.027.007 1.905.022 3.81.046 5.716.032 2.673.032 5.345.024 8.02l.05 2.363c-.067 5.934-1.97 9.847-5.633 14.483-3.683 3.508-6.55 4.285-11.5 4.5-4.918-.194-7.766-1.13-11.5-4.5-4.786-5.303-5.154-9.403-5.177-16.323l-.02-2.574c-.02-2.811-.031-5.623-.041-8.435l-.013-2.911a6753.98 6753.98 0 01-.044-15.251c-.011-5.25-.046-10.498-.085-15.747-.026-4.038-.035-8.076-.038-12.115-.005-1.934-.017-3.87-.035-5.804-.025-2.71-.024-5.418-.017-8.128l-.039-2.414c.049-5.224 1.09-8.135 4.509-12.298 5.642-4.97 9.577-5.801 17-5z" fill="#F59127"/><path d="M73 265c5.252 2.033 8.383 4.837 11.146 9.8 1.701 4.382 1.337 8.966 1.245 13.602l-.018 3.266c-.022 3.424-.072 6.846-.123 10.27-.02 2.328-.038 4.657-.055 6.986A2398.54 2398.54 0 0185 326l-1.348-1.836c-3.53-4.623-7.068-8.655-13.02-9.5-5.737-.09-9.197.324-13.632 4.336-4.093 4.998-4.585 8.57-4.546 14.76l-.031 2.603c-.03 2.824-.031 5.648-.032 8.473-.015 1.964-.032 3.929-.05 5.893-.044 5.159-.064 10.318-.08 15.476-.019 5.27-.06 10.538-.1 15.807-.076 10.33-.126 20.658-.161 30.988h-1c-.14-17.594-.246-35.188-.31-52.782-.032-8.17-.074-16.34-.143-24.509-.06-7.123-.098-14.245-.112-21.368-.007-3.77-.026-7.539-.07-11.309-.04-3.552-.053-7.104-.044-10.657a357.368 357.368 0 00-.068-5.749c.049-6.744.678-10.949 5.19-16.103 5.452-5.334 10.07-6.84 17.557-5.523z" fill="#39454D"/><path d="M343 274c1.632 1.158 1.632 1.158 3 3 .378 2.625.378 2.625.381 5.845l.026 3.697-.019 4.062c.004 1.424.01 2.848.016 4.272.014 3.87.008 7.74-.001 11.61-.008 4.046 0 8.092.004 12.139.006 6.796-.002 13.591-.016 20.387-.016 7.861-.01 15.722.006 23.583.013 6.745.015 13.49.007 20.235-.004 4.03-.005 8.06.005 12.091.009 3.789.003 7.578-.015 11.366a549.53 549.53 0 00.004 4.176c.008 1.897-.004 3.795-.017 5.692l-.003 3.22C346 422 346 422 344.632 423.842 342.294 425.5 340.8 425.42 338 425c-1.632-1.158-1.632-1.158-3-3-.378-2.625-.378-2.625-.381-5.845l-.026-3.697.019-4.062c-.004-1.424-.01-2.848-.016-4.272-.014-3.87-.008-7.74.001-11.61.008-4.046 0-8.092-.004-12.139-.006-6.796.002-13.591.016-20.387.016-7.861.01-15.722-.006-23.583a6359.4 6359.4 0 01-.007-20.235c.004-4.03.005-8.06-.005-12.091-.009-3.789-.003-7.578.015-11.366a549.53 549.53 0 00-.004-4.176c-.008-1.897.004-3.795.017-5.692l.003-3.22C335 277 335 277 336.368 275.158 338.706 273.5 340.2 273.58 343 274z" fill="#C6C6C9"/><path d="M266.5 274.75c2.5.25 2.5.25 4.5 2.25.252 2.505.252 2.505.254 5.732l.017 3.697-.012 4.077c.002 1.425.006 2.851.01 4.277.01 3.878.006 7.756 0 11.634-.005 4.052 0 8.104.002 12.157.004 6.806 0 13.612-.01 20.418-.011 7.876-.008 15.752.003 23.629.01 6.754.01 13.508.006 20.262-.004 4.038-.004 8.076.003 12.113.005 3.796.001 7.59-.01 11.386-.003 1.396-.002 2.791.002 4.187.006 1.9-.002 3.8-.011 5.7l-.002 3.226C271 422 271 422 269 424c-2.5.25-2.5.25-5 0-2.68-2.68-2.251-3.986-2.254-7.732l-.017-3.697.012-4.077c-.002-1.425-.006-2.851-.01-4.277-.01-3.878-.006-7.756 0-11.634.005-4.052 0-8.104-.002-12.157-.004-6.806 0-13.612.01-20.418.011-7.876.008-15.752-.003-23.629-.01-6.754-.01-13.508-.006-20.262.004-4.038.004-8.076-.003-12.113-.005-3.796-.001-7.59.01-11.386.003-1.396.002-2.791-.002-4.187-.006-1.9.002-3.8.011-5.7l.002-3.226c.352-3.496 1.254-4.405 4.752-4.755zM172.5 274.75c2.5.25 2.5.25 4.5 2.25.252 2.49.252 2.49.254 5.694l.017 3.671-.012 4.05c.002 1.415.006 2.83.01 4.246.01 3.851.006 7.703 0 11.554-.005 4.024 0 8.048.002 12.073.004 6.759 0 13.517-.01 20.276-.011 7.822-.008 15.644.003 23.466.01 6.708.01 13.415.006 20.122-.004 4.01-.004 8.02.003 12.03.005 3.769.001 7.537-.01 11.307a817.43 817.43 0 00.002 4.157c.006 1.887-.002 3.774-.011 5.66l-.002 3.205C177 421 177 421 175 423c-2.5.25-2.5.25-5 0-2.673-2.673-2.251-3.958-2.254-7.694l-.017-3.671.012-4.05c-.002-1.415-.006-2.83-.01-4.246-.01-3.851-.006-7.703 0-11.554.005-4.024 0-8.048-.002-12.073-.004-6.759 0-13.517.01-20.276.011-7.822.008-15.644-.003-23.466-.01-6.708-.01-13.415-.006-20.122.004-4.01.004-8.02-.003-12.03-.005-3.769-.001-7.537.01-11.307a817.43 817.43 0 00-.002-4.157c-.006-1.887.002-3.774.011-5.66l.002-3.205c.353-3.487 1.265-4.39 4.752-4.739z" fill="#F59127"/><path d="M359.5 291.625c2.988.448 3.674 1.023 5.5 3.375.378 2.094.378 2.094.381 4.555l.026 2.83-.019 3.097.016 3.268c.013 3.573.005 7.146-.006 10.719.002 2.477.005 4.954.01 7.431.004 5.862-.006 11.723-.022 17.584-.012 4.677-.008 9.353.005 14.03.017 6.442.02 12.884.01 19.326-.002 2.46 0 4.919.008 7.378.007 3.433-.004 6.866-.02 10.3l.018 3.098-.026 2.83-.003 2.46c-.472 2.616-1.282 3.503-3.378 5.094-2.5.375-2.5.375-5 0-2.096-1.59-2.906-2.478-3.378-5.094l-.003-2.46-.026-2.83.019-3.098-.016-3.268c-.013-3.573-.005-7.146.006-10.719-.002-2.477-.005-4.954-.01-7.431-.004-5.862.006-11.723.022-17.584.012-4.677.008-9.353-.005-14.03a4584.46 4584.46 0 01-.01-19.326c.002-2.46 0-4.919-.008-7.378-.007-3.433.004-6.866.02-10.3l-.018-3.098.026-2.83.003-2.46c.648-3.59 2.35-4.94 5.878-5.469z" fill="#C6C6C9"/><path d="M208.188 124.688c5.405 4.444 8.472 8.37 9.812 15.312.533 7.593-1.314 13.013-6 19-4.844 4.268-9.685 5.26-16 5-5.822-1.813-10.231-4.473-13.75-9.5-2.364-6.619-3.403-13.618-.813-20.313 2.467-4.701 6.068-8.374 10.563-11.187 5.803-1.618 10.919-1.102 16.188 1.688zM324.188 124.688c5.353 4.402 8.674 8.371 9.812 15.312.189 7.427-.999 13.345-6 19-5.327 4.155-9.26 5.45-16 5-6.483-2.124-10.362-5.134-13.75-11.063-2.555-6.004-3.192-11.59-1.188-17.937 2.456-5.927 6.532-9.95 12.375-12.5 5.637-.791 9.683-.495 14.75 2.188z" fill="#2C2F25"/><path d="M182 151c1.819 1.819 2.641 3.525 3.71 5.855 1.63 2.71 3.354 3.572 6.102 5.083 3.975 2.444 3.975 2.444 4.907 5.152.228 5.574-1.514 10.393-4.719 14.91-3.792 4.093-8.07 6.584-13.613 7.371-6.817.168-11.183-.868-16.387-5.371-4.93-5.32-6.431-9.38-6.242-16.54.606-6.161 3.899-9.396 8.426-13.163 5.502-3.929 11.177-4.654 17.816-3.297zM332 151c6.91-.51 12.297-.2 18 4 4.647 4.454 7.107 8.123 7.375 14.688-.057 5.588-1.807 9.089-5.375 13.312-5.35 5.082-10.182 6.485-17.438 6.313-5.562-.679-9.778-3.11-13.437-7.313-3.969-5.603-5.276-10.105-4.125-17 2.125-1.875 2.125-1.875 5-3 5.288-3.022 7.341-5.682 10-11z" fill="#EDA98B"/><path d="M285.5 292.75c2.5.25 2.5.25 4.5 2.25.252 1.958.252 1.958.254 4.403l.017 2.804-.012 3.086.01 3.242c.01 3.551.003 7.102-.003 10.653l.005 7.375c.003 5.159 0 10.317-.01 15.475-.012 6.625-.005 13.25.007 19.875.007 5.078.005 10.157 0 15.235-.002 2.443 0 4.887.005 7.33.005 3.41-.003 6.82-.014 10.229l.012 3.086-.017 2.804-.002 2.445C290 405 290 405 288 407c-2.5.25-2.5.25-5 0-2.441-2.441-2.25-3.056-2.254-6.403l-.017-2.804.012-3.086-.01-3.242c-.01-3.551-.003-7.102.003-10.652l-.005-7.376c-.003-5.159 0-10.317.01-15.475.012-6.625.005-13.25-.007-19.875-.007-5.078-.005-10.157 0-15.235.002-2.443 0-4.887-.005-7.33-.005-3.41.003-6.82.014-10.229l-.012-3.086.017-2.804.002-2.445c.411-3.197 1.654-3.898 4.752-4.208zM248.5 292.75c2.5.25 2.5.25 4.5 2.25.252 1.958.252 1.958.254 4.403l.017 2.804-.012 3.086.01 3.242c.01 3.551.003 7.102-.003 10.653l.005 7.375c.003 5.159 0 10.317-.01 15.475-.012 6.625-.005 13.25.007 19.875.007 5.078.005 10.157 0 15.235-.002 2.443 0 4.887.005 7.33.005 3.41-.003 6.82-.014 10.229l.012 3.086-.017 2.804-.002 2.445C253 405 253 405 251 407c-2.5.25-2.5.25-5 0-2.441-2.441-2.25-3.056-2.254-6.403l-.017-2.804.012-3.086-.01-3.242c-.01-3.551-.003-7.102.003-10.652l-.005-7.376c-.003-5.159 0-10.317.01-15.475.012-6.625.005-13.25-.007-19.875-.007-5.078-.005-10.157 0-15.235.002-2.443 0-4.887-.005-7.33-.005-3.41.003-6.82.014-10.229l-.012-3.086.017-2.804.002-2.445c.411-3.197 1.654-3.898 4.752-4.208zM191.5 292.75c2.5.25 2.5.25 4.5 2.25.252 1.958.252 1.958.254 4.403l.017 2.804-.012 3.086.01 3.242c.01 3.551.003 7.102-.003 10.653l.005 7.375c.003 5.159 0 10.317-.01 15.475-.012 6.625-.005 13.25.007 19.875.007 5.078.005 10.157 0 15.235-.002 2.443 0 4.887.005 7.33.005 3.41-.003 6.82-.014 10.229l.012 3.086-.017 2.804-.002 2.445C196 405 196 405 194 407c-2.5.25-2.5.25-5 0-2.441-2.441-2.25-3.056-2.254-6.403l-.017-2.804.012-3.086-.01-3.242c-.01-3.551-.003-7.102.003-10.652l-.005-7.376c-.003-5.159 0-10.317.01-15.475.012-6.625.005-13.25-.007-19.875-.007-5.078-.005-10.157 0-15.235.002-2.443 0-4.887-.005-7.33-.005-3.41.003-6.82.014-10.229l-.012-3.086.017-2.804.002-2.445c.411-3.197 1.654-3.898 4.752-4.208z" fill="#F49127"/><path d="M435 305c1.632 1.029 1.632 1.029 3 3 .296 2.714.41 5.198.388 7.912l.016 2.44c.013 2.664.005 5.328-.006 7.992a2446.378 2446.378 0 01-.007 17.18c-.017 4.973-.007 9.946.01 14.92.012 3.819.008 7.638 0 11.457-.002 1.834 0 3.668.008 5.502.007 2.562-.004 5.123-.02 7.685l.018 2.305c-.062 5.11-.062 5.11-1.775 7.578-2.359 1.487-3.902 1.439-6.632 1.029-1.632-1.029-1.632-1.029-3-3a65.964 65.964 0 01-.388-7.912l-.016-2.44c-.013-2.664-.005-5.328.006-7.992a2446.378 2446.378 0 01.007-17.18c.017-4.973.007-9.946-.01-14.92-.012-3.819-.008-7.638 0-11.457.002-1.834 0-3.668-.008-5.502-.007-2.562.004-5.123.02-7.685l-.018-2.305c.062-5.11.062-5.11 1.775-7.578 2.359-1.487 3.902-1.439 6.632-1.029zM380 305c1.632 1.029 1.632 1.029 3 3 .296 2.714.41 5.198.388 7.912l.016 2.44c.013 2.664.005 5.328-.006 7.992a2446.378 2446.378 0 01-.007 17.18c-.017 4.973-.007 9.946.01 14.92.012 3.819.008 7.638 0 11.457-.002 1.834 0 3.668.008 5.502.007 2.562-.004 5.123-.02 7.685l.018 2.305c-.062 5.11-.062 5.11-1.775 7.578-2.359 1.487-3.902 1.439-6.632 1.029-1.632-1.029-1.632-1.029-3-3a65.964 65.964 0 01-.388-7.912l-.016-2.44c-.013-2.664-.005-5.328.006-7.992a2446.378 2446.378 0 01.007-17.18c.017-4.973.007-9.946-.01-14.92-.012-3.819-.008-7.638 0-11.457.002-1.834 0-3.668-.008-5.502-.007-2.562.004-5.123.02-7.685l-.018-2.305c.062-5.11.062-5.11 1.775-7.578 2.359-1.487 3.902-1.439 6.632-1.029zM325 305c1.632 1.029 1.632 1.029 3 3 .296 2.714.41 5.198.388 7.912l.016 2.44c.013 2.664.005 5.328-.006 7.992a2446.378 2446.378 0 01-.007 17.18c-.017 4.973-.007 9.946.01 14.92.012 3.819.008 7.638 0 11.457-.002 1.834 0 3.668.008 5.502.007 2.562-.004 5.123-.02 7.685l.018 2.305c-.062 5.11-.062 5.11-1.775 7.578-2.359 1.487-3.902 1.439-6.632 1.029-1.632-1.029-1.632-1.029-3-3a65.964 65.964 0 01-.388-7.912l-.016-2.44c-.013-2.664-.005-5.328.006-7.992a2446.378 2446.378 0 01.007-17.18c.017-4.973.007-9.946-.01-14.92-.012-3.819-.008-7.638 0-11.457.002-1.834 0-3.668-.008-5.502-.007-2.562.004-5.123.02-7.685l-.018-2.305c.062-5.11.062-5.11 1.775-7.578 2.359-1.487 3.902-1.439 6.632-1.029z" fill="#C6C6C9"/><path d="M154.5 305.75c2.5.25 2.5.25 4.5 2.25.198 2.64.273 5.174.259 7.814l.01 2.445c.01 2.674.003 5.348-.003 8.022l.005 5.56c.003 3.887 0 7.774-.01 11.661-.012 4.991-.005 9.981.007 14.972.007 3.828.005 7.655 0 11.483-.002 1.84 0 3.68.005 5.521.005 2.57-.003 5.138-.014 7.708l.012 2.32c-.042 5.265-.042 5.265-2.271 7.494-2.5.25-2.5.25-5 0-2.516-2.516-2.243-4.06-2.271-7.494l.012-2.32-.01-2.445c-.01-2.674-.003-5.348.003-8.022a3690.191 3690.191 0 01.005-17.221c.012-4.991.005-9.981-.007-14.972-.007-3.828-.005-7.655 0-11.483.002-1.84 0-3.68-.005-5.521-.005-2.57.003-5.138.014-7.708l-.012-2.32c.059-7.273.059-7.273 4.771-7.744zM230.5 311.75c2.5.25 2.5.25 4.5 2.25.254 2.96.254 2.96.259 6.805l.01 2.119c.01 2.317.003 4.634-.003 6.951l.005 4.82c.003 3.37 0 6.738-.01 10.108-.012 4.324-.005 8.649.007 12.973.007 3.319.005 6.637 0 9.955-.002 1.595 0 3.19.005 4.785.005 2.226-.003 4.453-.014 6.68l-.005 3.844C235 386 235 386 233 388c-2.5.25-2.5.25-5 0-2.857-2.857-2.254-4.804-2.259-8.805l-.01-2.119c-.01-2.317-.003-4.634.003-6.951l-.005-4.82c-.003-3.37 0-6.738.01-10.108.012-4.324.005-8.649-.007-12.973a2662.85 2662.85 0 010-9.955c.002-1.595 0-3.19-.005-4.785-.005-2.226.003-4.453.014-6.68l.005-3.844c.321-3.744.943-4.829 4.754-5.21z" fill="#F49127"/><path d="M414.5 320.625c2.999.45 3.684.995 5.5 3.375.381 2.315.381 2.315.388 5.066l.029 3.125-.019 3.372.01 3.463c.001 2.417-.004 4.835-.017 7.252-.016 3.707 0 7.413.02 11.12-.003 2.347-.007 4.693-.013 7.04l.019 3.37-.029 3.126-.007 2.751c-.456 2.77-1.146 3.662-3.381 5.315-2.5.375-2.5.375-5 0-2.235-1.653-2.925-2.545-3.381-5.315l-.007-2.751-.029-3.125.019-3.372-.01-3.463c-.001-2.417.004-4.835.017-7.252.016-3.707 0-7.413-.02-11.12.003-2.347.007-4.693.013-7.04l-.019-3.37.029-3.126.007-2.751c.615-3.734 2.189-5.136 5.881-5.69zM303.5 320.625c2.999.45 3.684.995 5.5 3.375.381 2.315.381 2.315.388 5.066l.029 3.125-.019 3.372.01 3.463c.001 2.417-.004 4.835-.017 7.252-.016 3.707 0 7.413.02 11.12-.003 2.347-.007 4.693-.013 7.04l.019 3.37-.029 3.126-.007 2.751c-.456 2.77-1.146 3.662-3.381 5.315-2.5.375-2.5.375-5 0-2.235-1.653-2.925-2.545-3.381-5.315l-.007-2.751-.029-3.125.019-3.372-.01-3.463c-.001-2.417.004-4.835.017-7.252.016-3.707 0-7.413-.02-11.12.003-2.347.007-4.693.013-7.04l-.019-3.37.029-3.126.007-2.751c.615-3.734 2.189-5.136 5.881-5.69z" fill="#C5C5C8"/><path d="M211.5 314.75c2.5.25 2.5.25 4.5 2.25.254 2.695.254 2.695.259 6.162l.019 3.924-.012 4.258.005 4.349c.003 3.04 0 6.08-.01 9.119-.012 3.9-.005 7.802.007 11.703.007 2.993.005 5.987 0 8.981-.002 1.439 0 2.877.005 4.316.005 2.009-.004 4.017-.014 6.026l-.005 3.467C216 382 216 382 214 384c-2.5.25-2.5.25-5 0-2.75-2.75-2.253-4.312-2.259-8.162l-.019-3.924.012-4.258-.005-4.349c-.003-3.04 0-6.08.01-9.119.012-3.9.005-7.802-.007-11.703-.007-2.993-.005-5.987 0-8.981.002-1.439 0-2.877-.005-4.316-.005-2.009.004-4.017.014-6.026l.005-3.467c.34-3.6 1.123-4.582 4.754-4.945z" fill="#F49027"/><path d="M135.5 317.75c2.5.25 2.5.25 4.5 2.25.254 2.505.254 2.505.259 5.703l.019 3.62-.012 3.927.005 4.013c.003 2.804 0 5.608-.01 8.413-.012 3.598-.005 7.196.007 10.794.007 2.763.005 5.525 0 8.287-.002 1.973.004 3.947.01 5.92l-.02 3.62-.004 3.198C140 380 140 380 138 382c-2.5.25-2.5.25-5 0-2.672-2.672-2.253-3.97-2.259-7.703l-.019-3.62.012-3.927-.005-4.013c-.003-2.804 0-5.608.01-8.413.012-3.598.005-7.196-.007-10.794-.007-2.763-.005-5.525 0-8.287.002-1.973-.004-3.947-.01-5.92l.02-3.62c0-1.055.002-2.11.004-3.198.354-3.496 1.256-4.405 4.754-4.755z" fill="#F39027"/><path d="M451.5 325.625c2.98.447 3.664 1.045 5.5 3.375.381 1.935.381 1.935.388 4.148l.029 2.519-.019 2.708.01 2.79c.001 1.947-.004 3.894-.017 5.84-.016 2.984 0 5.965.02 8.948-.003 1.89-.007 3.781-.013 5.672l.019 2.708-.029 2.519-.007 2.213c-.492 2.498-1.39 3.392-3.381 4.935-2.5.375-2.5.375-5 0-1.992-1.543-2.89-2.437-3.381-4.935l-.007-2.213-.029-2.519.019-2.708-.01-2.79c-.001-1.947.004-3.894.017-5.84.016-2.984 0-5.965-.02-8.948.003-1.89.007-3.781.013-5.672l-.019-2.708.029-2.519.007-2.213c.685-3.48 2.471-4.799 5.881-5.31zM395.5 325.625c2.98.447 3.664 1.045 5.5 3.375.381 1.935.381 1.935.388 4.148l.029 2.519-.019 2.708.01 2.79c.001 1.947-.004 3.894-.017 5.84-.016 2.984 0 5.965.02 8.948-.003 1.89-.007 3.781-.013 5.672l.019 2.708-.029 2.519-.007 2.213c-.492 2.498-1.39 3.392-3.381 4.935-2.5.375-2.5.375-5 0-1.992-1.543-2.89-2.437-3.381-4.935l-.007-2.213-.029-2.519.019-2.708-.01-2.79c-.001-1.947.004-3.894.017-5.84.016-2.984 0-5.965-.02-8.948.003-1.89.007-3.781.013-5.672l-.019-2.708.029-2.519.007-2.213c.685-3.48 2.471-4.799 5.881-5.31z" fill="#C5C5C8"/><path d="M275 156c3.875.875 3.875.875 5 2-.122 6.958-2.218 10.984-7 16-5.43 4.298-10.843 6.546-17.86 6.305-7.366-1.049-12.09-4.688-16.73-10.305-2.912-4.13-3.75-6.887-3.41-12 1-1 1-1 3.375-1.328 2.625.328 2.625.328 4.25 2.156L244 161.25c3.165 5.195 3.165 5.195 8 8.75 5.016.8 8.807.596 13.375-1.688 4.114-3.623 6.916-7.57 9.625-12.312z" fill="#2C2F25"/><path d="M117.5 332.75c2.5.25 2.5.25 4.5 2.25.259 2.766.259 2.766.266 6.25l.007 3.781-.023 3.969.023 3.969-.007 3.781-.007 3.484C122 363 122 363 120 365c-2.5.25-2.5.25-5 0-2.76-2.76-2.258-4.392-2.266-8.25l-.007-3.781.023-3.969-.023-3.969.007-3.781.007-3.484c.34-3.637 1.08-4.648 4.759-5.016z" fill="#F29027"/><path d="M323.5 131.75c2.5.25 2.5.25 4.5 2.25.25 2.5.25 2.5 0 5-2 2-2 2-4.5 2.25C321 141 321 141 319 139c-.25-2.5-.25-2.5 0-5 2-2 2-2 4.5-2.25zM208.5 131.75c2.5.25 2.5.25 4.5 2.25.25 2.5.25 2.5 0 5-2 2-2 2-4.5 2.25C206 141 206 141 204 139c-.25-2.5-.25-2.5 0-5 2-2 2-2 4.5-2.25z" fill="#E1E0DE"/></svg>