<svg id="prefix__a" xmlns="http://www.w3.org/2000/svg" viewBox="0 0 482.59 482.59"><defs><style>.prefix__b{fill:#c7c7ca;stroke:#c7c7ca}.prefix__b,.prefix__f{stroke-miterlimit:10}.prefix__h{fill:#2a2c23}.prefix__i{fill:#f1ac8d}.prefix__j{fill:#2c2f25}.prefix__f{fill:#f69227;stroke:#ff9a3e}.prefix__l{fill:#f1f0ef}</style></defs><path d="M52.19 2.5h378.2c27.43 0 49.69 22.27 49.69 49.69v378.2c0 27.43-22.27 49.69-49.69 49.69H52.19c-27.43 0-49.69-22.27-49.69-49.69V52.19C2.5 24.77 24.77 2.5 52.19 2.5z" stroke="#ff8c00" fill="#252f35" stroke-width="5" stroke-miterlimit="10"/><rect x="123.1" y="56.07" width="239.64" height="157.65" rx="32.93" ry="32.93" fill="#38454e" stroke-width="8" stroke="#ff8c00" stroke-miterlimit="10"/><rect x="37.77" y="248.7" width="34.64" height="160" rx="17.32" ry="17.32" fill="#38454d" stroke="#525f66" stroke-width="2" stroke-miterlimit="10"/><rect x="38.59" y="290.96" width="33" height="116.74" rx="16.5" ry="16.5" fill="#f69227"/><rect class="prefix__f" x="99.74" y="316.33" width="9.58" height="33" rx="4.79" ry="4.79"/><rect class="prefix__f" x="117.63" y="301.21" width="9.58" height="63.25" rx="4.79" ry="4.79"/><rect class="prefix__f" x="136.79" y="289.67" width="9.58" height="86.33" rx="4.79" ry="4.79"/><rect class="prefix__f" x="154.68" y="258.55" width="9.58" height="148.56" rx="4.79" ry="4.79"/><rect class="prefix__f" x="173.56" y="276.65" width="9.58" height="112.36" rx="4.79" ry="4.79"/><rect class="prefix__f" x="193.71" y="298.2" width="9.58" height="69.26" rx="4.79" ry="4.79"/><rect class="prefix__f" x="212.87" y="294.87" width="9.58" height="75.91" rx="4.79" ry="4.79"/><rect class="prefix__f" x="230.62" y="276.65" width="9.58" height="112.36" rx="4.79" ry="4.79"/><rect class="prefix__f" x="248.79" y="258.42" width="9.58" height="148.81" rx="4.79" ry="4.79"/><rect class="prefix__f" x="267.67" y="276.65" width="9.58" height="112.36" rx="4.79" ry="4.79"/><rect class="prefix__b" x="285.69" y="304.89" width="9.58" height="55.88" rx="4.79" ry="4.79"/><rect class="prefix__b" x="304.82" y="288.7" width="9.58" height="88.27" rx="4.79" ry="4.79"/><rect class="prefix__b" x="322.94" y="258.42" width="9.58" height="148.81" rx="4.79" ry="4.79"/><rect class="prefix__b" x="341.81" y="276.65" width="9.58" height="112.36" rx="4.79" ry="4.79"/><rect class="prefix__b" x="359.68" y="288.7" width="9.58" height="88.27" rx="4.79" ry="4.79"/><rect class="prefix__b" x="377.55" y="308.12" width="9.58" height="49.43" rx="4.79" ry="4.79"/><rect class="prefix__b" x="396.68" y="304.89" width="9.58" height="55.88" rx="4.79" ry="4.79"/><rect class="prefix__b" x="414.8" y="288.7" width="9.58" height="88.27" rx="4.79" ry="4.79"/><rect class="prefix__b" x="433.67" y="310.06" width="9.58" height="45.55" rx="4.79" ry="4.79"/><ellipse class="prefix__i" cx="163.03" cy="153.65" rx="20.19" ry="19.11"/><ellipse class="prefix__i" cx="323.69" cy="153.65" rx="20.19" ry="19.11"/><ellipse class="prefix__j" cx="186.04" cy="126.73" rx="19.32" ry="21.28"/><ellipse class="prefix__j" cx="301.54" cy="126.73" rx="19.32" ry="21.28"/><circle class="prefix__l" cx="195.32" cy="120.16" r="4.72"/><circle class="prefix__l" cx="310.39" cy="120.16" r="4.72"/><path class="prefix__h" d="M267.12 144.33c-.5 2.19-2.43 3.61-4.31 3.18s-3.01-2.55-2.51-4.74 2.43-3.61 4.32-3.18 3 2.55 2.5 4.74zM225.93 147.46c-1.88.43-3.81-.99-4.31-3.18s.62-4.31 2.5-4.74 3.82.99 4.32 3.18c.5 2.18-.62 4.3-2.51 4.74z"/><path d="M224.98 143.33c2.26 8.72 10.04 14.9 18.91 15.11 9.21.22 17.51-6.05 19.87-15.11" fill="none" stroke="#2a2c23" stroke-width="7" stroke-miterlimit="10"/></svg>